<?xml version="1.0" encoding="UTF-8" standalone="no"?>
<svg
   xmlns:dc="http://purl.org/dc/elements/1.1/"
   xmlns:cc="http://creativecommons.org/ns#"
   xmlns:rdf="http://www.w3.org/1999/02/22-rdf-syntax-ns#"
   xmlns:svg="http://www.w3.org/2000/svg"
   xmlns="http://www.w3.org/2000/svg"
   xmlns:sodipodi="http://sodipodi.sourceforge.net/DTD/sodipodi-0.dtd"
   xmlns:inkscape="http://www.inkscape.org/namespaces/inkscape"
   version="1.1"
   id="svg2"
   xml:space="preserve"
   width="768"
   height="384"
   viewBox="0 0 768 384"
   sodipodi:docname="EntropyGraph_Logo_Vertical_4C-Inverse.ai"><metadata
     id="metadata8"><rdf:RDF><cc:Work
         rdf:about=""><dc:format>image/svg+xml</dc:format><dc:type
           rdf:resource="http://purl.org/dc/dcmitype/StillImage" /></cc:Work></rdf:RDF></metadata><defs
     id="defs6"><linearGradient
       x1="0"
       y1="0"
       x2="1"
       y2="0"
       gradientUnits="userSpaceOnUse"
       gradientTransform="matrix(118.38309,118.38309,118.38309,-118.38309,228.80853,130.45355)"
       spreadMethod="pad"
       id="linearGradient38"><stop
         style="stop-opacity:1;stop-color:#18f29b"
         offset="0"
         id="stop24" /><stop
         style="stop-opacity:1;stop-color:#18f29b"
         offset="0.06021098"
         id="stop26" /><stop
         style="stop-opacity:1;stop-color:#2cc5fe"
         offset="0.228907"
         id="stop28" /><stop
         style="stop-opacity:1;stop-color:#2cc5fe"
         offset="0.285622"
         id="stop30" /><stop
         style="stop-opacity:1;stop-color:#2e78fd"
         offset="0.590034"
         id="stop32" /><stop
         style="stop-opacity:1;stop-color:#2e78fd"
         offset="0.60418059"
         id="stop34" /><stop
         style="stop-opacity:1;stop-color:#9a50ff"
         offset="1"
         id="stop36" /></linearGradient><clipPath
       clipPathUnits="userSpaceOnUse"
       id="clipPath48"><path
         d="M 0,288 H 576 V 0 H 0 Z"
         id="path46" /></clipPath></defs><sodipodi:namedview
     pagecolor="#ffffff"
     bordercolor="#666666"
     borderopacity="1"
     objecttolerance="10"
     gridtolerance="10"
     guidetolerance="10"
     inkscape:pageopacity="0"
     inkscape:pageshadow="2"
     inkscape:window-width="640"
     inkscape:window-height="480"
     id="namedview4" /><g
     id="g10"
     inkscape:groupmode="layer"
     inkscape:label="EntropyGraph_Logo_Vertical_4C-Inverse"
     transform="matrix(1.3333333,0,0,-1.3333333,0,384)"><g
       id="g12"><g
         id="g14"><g
           id="g20"><g
             id="g22"><path
               d="m 312.834,233.026 c -5.666,7.567 -14.674,12.496 -24.834,12.496 v 0 c -17.117,0 -31.043,-13.926 -31.043,-31.042 v 0 -0.059 c -5.195,3.914 -11.633,6.267 -18.625,6.267 v 0 c -17.117,0 -31.043,-13.926 -31.043,-31.043 v 0 -24.834 c 0,-17.117 13.926,-31.042 31.043,-31.042 v 0 c 10.16,0 19.167,4.927 24.834,12.495 v 0 c 5.667,-7.568 14.674,-12.495 24.834,-12.495 v 0 c 17.117,0 31.043,13.925 31.043,31.042 v 0 0.059 c 5.195,-3.916 11.633,-6.268 18.625,-6.268 v 0 c 17.117,0 31.043,13.926 31.043,31.043 v 0 24.835 c 0,17.116 -13.926,31.042 -31.043,31.042 v 0 c -10.159,0 -19.167,-4.929 -24.834,-12.496 m 6.209,-43.381 v 24.835 c 0,10.27 8.355,18.625 18.625,18.625 v 0 c 10.27,0 18.626,-8.355 18.626,-18.625 v 0 -24.835 c 0,-10.27 -8.356,-18.625 -18.626,-18.625 v 0 c -10.27,0 -18.625,8.355 -18.625,18.625 m -49.669,-24.834 v 24.834 24.835 c 0,10.27 8.356,18.625 18.626,18.625 v 0 c 10.271,0 18.626,-8.355 18.626,-18.625 v 0 -24.835 -24.834 c 0,-10.27 -8.355,-18.626 -18.626,-18.626 v 0 c -10.27,0 -18.626,8.356 -18.626,18.626 m -49.668,0 v 24.834 c 0,10.27 8.356,18.626 18.626,18.626 v 0 c 10.27,0 18.625,-8.356 18.625,-18.626 v 0 -24.834 c 0,-10.27 -8.355,-18.626 -18.625,-18.626 v 0 c -10.27,0 -18.626,8.356 -18.626,18.626"
               style="fill:url(#linearGradient38);stroke:none"
               id="path40" /></g></g></g></g><g
       id="g42"><g
         id="g44"
         clip-path="url(#clipPath48)"><g
           id="g50"
           transform="translate(72,101.1445)"><path
             d="m 0,0 c 0,0.853 0.721,1.573 1.572,1.573 h 0.132 23.453 c 0.917,0 1.572,-0.72 1.572,-1.573 0,-0.916 -0.655,-1.638 -1.572,-1.638 H 3.21 v -18.146 h 19.194 c 0.853,0 1.574,-0.721 1.574,-1.638 0,-0.851 -0.721,-1.572 -1.574,-1.572 H 3.21 v -18.081 h 21.947 c 0.917,0 1.572,-0.722 1.572,-1.639 0,-0.851 -0.655,-1.572 -1.572,-1.572 H 1.769 1.572 1.44 C 0.654,-44.221 0,-43.565 0,-42.714 Z"
             style="fill:#ffffff;fill-opacity:1;fill-rule:nonzero;stroke:none"
             id="path52" /></g><g
           id="g54"
           transform="translate(133.0508,75.8574)"><path
             d="m 0,0 c 0,5.437 -4.389,9.893 -9.892,9.893 -5.437,0 -9.826,-4.456 -9.958,-9.893 v -17.427 -0.261 c -0.065,-0.262 -0.131,-0.525 -0.328,-0.721 -0.261,-0.394 -0.719,-0.59 -1.178,-0.59 h -0.394 c -0.458,0.132 -0.851,0.458 -1.047,0.852 -0.066,0.066 -0.066,0.13 -0.066,0.197 0,0.065 -0.066,0.13 -0.066,0.13 V -17.427 0 0.523 11.465 c 0,0.85 0.655,1.571 1.573,1.571 0.852,0 1.506,-0.721 1.506,-1.571 V 8.386 c 2.36,2.815 5.961,4.65 9.958,4.65 C -2.686,13.036 3.146,7.141 3.146,0 v -17.427 c 0,-0.918 -0.722,-1.572 -1.572,-1.572 -0.853,0 -1.574,0.654 -1.574,1.572 z"
             style="fill:#ffffff;fill-opacity:1;fill-rule:nonzero;stroke:none"
             id="path56" /></g><g
           id="g58"
           transform="translate(161.4785,87.3867)"><path
             d="M 0,0 C 0,-0.786 -0.786,-1.571 -1.573,-1.571 H -5.7 V -24.96 c 0,-1.572 1.573,-2.357 2.358,-2.357 0.786,0 1.639,-0.853 1.639,-1.639 0,-0.786 -0.853,-1.572 -1.639,-1.572 -3.21,0 -5.633,2.358 -5.633,5.568 v 23.389 h -3.996 c -1.573,0 -1.573,0.785 -1.573,1.571 0,0.786 0,1.572 1.573,1.572 h 3.996 v 11.924 c 0,0.786 0.786,1.572 1.572,1.572 0.851,0 1.703,-0.786 1.703,-1.572 V 1.572 h 4.127 C -0.786,1.572 0,0.786 0,0"
             style="fill:#ffffff;fill-opacity:1;fill-rule:nonzero;stroke:none"
             id="path60" /></g><g
           id="g62"
           transform="translate(171.8926,87.3223)"><path
             d="M 0,0 C 0,0.917 0.721,1.571 1.639,1.571 2.424,1.571 3.144,0.917 3.144,0 v -7.075 c 0.131,0.262 0.263,0.522 0.46,0.786 2.424,3.8 6.682,7.86 12.839,7.86 0.853,0 1.572,-0.654 1.572,-1.571 0,-0.853 -0.719,-1.572 -1.572,-1.572 -4.193,0 -7.075,-2.36 -9.303,-5.241 -2.161,-2.883 -3.405,-6.159 -3.865,-7.469 -0.131,-0.262 -0.131,-0.393 -0.131,-0.525 v -14.085 c 0,-0.918 -0.72,-1.572 -1.505,-1.572 -0.918,0 -1.639,0.654 -1.639,1.572 z"
             style="fill:#ffffff;fill-opacity:1;fill-rule:nonzero;stroke:none"
             id="path64" /></g><g
           id="g66"
           transform="translate(211.0654,60.0029)"><path
             d="m 0,0 c 6.551,0 12.054,5.766 12.054,12.906 0,7.142 -5.503,12.971 -12.054,12.971 -6.552,0 -12.054,-5.829 -12.054,-12.971 C -12.054,5.766 -6.552,0 0,0 m 0,28.956 c 8.451,0 15.199,-7.337 15.199,-16.05 C 15.199,4.192 8.451,-3.145 0,-3.145 c -8.386,0 -15.199,7.337 -15.199,16.051 0,8.713 6.813,16.05 15.199,16.05"
             style="fill:#ffffff;fill-opacity:1;fill-rule:nonzero;stroke:none"
             id="path68" /></g><g
           id="g70"
           transform="translate(238.249,73.04)"><path
             d="M 0,0 C 0,-7.075 5.568,-12.774 12.186,-12.84 18.998,-12.774 24.5,-7.075 24.5,0 24.5,7.075 18.998,12.71 12.186,12.71 5.7,12.71 0.262,7.337 0,0.524 Z M -3.21,-0.655 V 0 0.654 14.347 c 0,0.852 0.721,1.572 1.572,1.572 0.917,0 1.638,-0.72 1.638,-1.572 V 9.696 c 2.751,3.734 7.207,6.223 12.186,6.223 8.647,0 15.525,-7.141 15.525,-15.919 0,-8.713 -6.878,-15.985 -15.525,-15.985 -4.979,0 -9.435,2.49 -12.186,6.29 v -18.344 c 0,-0.853 -0.721,-1.571 -1.638,-1.571 -0.851,0 -1.572,0.718 -1.572,1.571 z"
             style="fill:#ffffff;fill-opacity:1;fill-rule:nonzero;stroke:none"
             id="path72" /></g><g
           id="g74"
           transform="translate(273.9468,87.4531)"><path
             d="M 0,0 C 0,0.852 0.721,1.506 1.507,1.506 2.424,1.506 3.144,0.852 3.144,0 v -17.427 c 0,-5.503 4.389,-9.892 9.828,-9.892 5.503,0 9.892,4.389 9.957,9.892 V 0 c 0,0.262 0.067,0.59 0.263,0.786 0,0.066 0.065,0.13 0.065,0.196 0.065,0 0.065,0.066 0.131,0.066 0.13,0.196 0.394,0.328 0.59,0.392 h 0.13 c 0.066,0 0.132,0.066 0.196,0.066 H 24.5 24.698 C 24.96,1.44 25.222,1.31 25.485,1.18 25.615,1.048 25.811,0.852 25.877,0.654 26.007,0.458 26.074,0.196 26.074,0 v -17.427 -0.59 -10.023 c 0,-8.386 -6.814,-15.067 -15.264,-15.067 -2.359,0 -4.586,0.588 -6.617,1.506 -0.721,0.459 -1.049,1.375 -0.656,2.096 0.393,0.786 1.245,0.983 2.031,0.786 1.572,-0.786 3.407,-1.244 5.242,-1.244 6.682,0 12.054,5.307 12.119,11.923 v 2.097 c -2.425,-2.751 -5.962,-4.586 -9.957,-4.586 C 5.83,-30.463 0,-24.634 0,-17.427 Z"
             style="fill:#ffffff;fill-opacity:1;fill-rule:nonzero;stroke:none"
             id="path76" /></g><g
           id="g78"
           transform="translate(313.8379,80.377)"><path
             d="m 0,0 c 0,13.168 10.875,23.651 24.175,23.651 5.568,0 10.875,-1.9 14.935,-5.11 1.704,-1.245 1.967,-3.67 0.722,-5.307 -1.244,-1.572 -3.669,-1.9 -5.307,-0.589 -2.817,2.161 -6.42,3.537 -10.35,3.537 -4.718,0 -8.844,-1.769 -11.793,-4.783 C 9.304,8.452 7.469,4.456 7.469,0 c 0,-4.323 1.835,-8.319 4.913,-11.268 2.949,-3.014 7.075,-4.782 11.793,-4.782 3.275,0 6.353,0.983 8.974,2.489 v 8.975 h -9.368 c -2.031,0 -3.734,1.703 -3.734,3.734 0,2.097 1.703,3.669 3.734,3.669 h 12.907 0.065 0.065 c 2.096,0 3.8,-1.572 3.8,-3.669 v -14.477 c 0,-0.458 -0.131,-0.721 -0.197,-1.114 -0.065,-0.131 -0.065,-0.197 -0.13,-0.328 v -0.065 c -0.198,-0.59 -0.591,-1.114 -1.245,-1.572 -4.128,-3.21 -9.303,-5.111 -14.871,-5.111 C 10.875,-23.519 0,-13.102 0,0"
             style="fill:#ffffff;fill-opacity:1;fill-rule:nonzero;stroke:none"
             id="path80" /></g><g
           id="g82"
           transform="translate(387.0098,86.1426)"><path
             d="m 0,0 c 0,-1.835 -1.507,-3.473 -3.472,-3.473 -1.507,0 -2.817,-0.393 -3.931,-1.244 -1.245,-0.786 -2.228,-1.9 -3.014,-3.145 -1.572,-2.097 -2.358,-4.586 -2.686,-5.502 v -12.448 c 0,-1.9 -1.638,-3.472 -3.603,-3.472 -1.9,0 -3.472,1.572 -3.472,3.472 V 0 c 0,1.9 1.572,3.407 3.472,3.407 1.965,0 3.603,-1.507 3.603,-3.407 v -0.459 c 0.393,0.459 0.917,0.982 1.375,1.311 2.164,1.441 4.979,2.621 8.256,2.555 C -1.507,3.407 0,1.9 0,0"
             style="fill:#ffffff;fill-opacity:1;fill-rule:nonzero;stroke:none"
             id="path84" /></g><g
           id="g86"
           transform="translate(414.7178,73.1719)"><path
             d="m 0,0 c 0,2.751 -0.982,5.108 -2.555,6.747 -1.573,1.769 -3.799,2.686 -6.092,2.686 -2.36,0 -4.585,-0.917 -6.092,-2.686 -1.574,-1.639 -2.49,-3.996 -2.49,-6.747 0,-2.687 0.916,-5.045 2.49,-6.749 1.507,-1.637 3.732,-2.554 6.092,-2.554 2.293,0 4.519,0.917 6.092,2.554 C -0.982,-5.045 0,-2.687 0,0 m 6.943,0 v -12.842 c 0,-1.899 -1.571,-3.471 -3.471,-3.471 -1.703,0 -3.014,1.246 -3.407,2.817 -2.49,-1.769 -5.437,-2.817 -8.712,-2.817 -4.456,0 -8.321,1.834 -11.138,4.782 -2.818,3.013 -4.454,7.075 -4.454,11.531 0,4.52 1.636,8.582 4.454,11.529 2.817,3.014 6.682,4.914 11.138,4.914 3.275,0 6.222,-1.114 8.712,-2.882 0.393,1.636 1.704,2.882 3.407,2.882 1.9,0 3.471,-1.572 3.471,-3.539 z"
             style="fill:#ffffff;fill-opacity:1;fill-rule:nonzero;stroke:none"
             id="path88" /></g><g
           id="g90"
           transform="translate(441.0488,73.1719)"><path
             d="m 0,0 c 0,-2.556 0.852,-5.045 2.555,-6.553 1.638,-1.833 3.799,-2.75 6.223,-2.75 2.229,0 4.455,0.917 6.159,2.75 1.506,1.508 2.555,3.997 2.555,6.553 0,2.554 -1.049,4.912 -2.555,6.615 C 13.233,8.386 11.007,9.302 8.778,9.302 6.354,9.302 4.193,8.386 2.555,6.615 0.852,4.912 0,2.554 0,0 M -7.206,-25.092 V -0.066 0 12.971 c 0,1.9 1.571,3.472 3.472,3.472 1.835,0 3.341,-1.246 3.603,-2.686 2.424,1.572 5.568,2.686 8.909,2.686 8.714,0 15.855,-7.468 15.855,-16.443 0,-8.977 -7.141,-16.248 -15.855,-16.248 -3.274,0 -6.42,0.983 -8.778,2.685 v -11.529 c 0,-1.835 -1.638,-3.538 -3.734,-3.538 -1.901,0 -3.472,1.703 -3.472,3.538"
             style="fill:#ffffff;fill-opacity:1;fill-rule:nonzero;stroke:none"
             id="path92" /></g><g
           id="g94"
           transform="translate(482.708,60.4619)"><path
             d="m 0,0 c 0,-2.031 -1.637,-3.604 -3.668,-3.604 -1.639,0 -3.014,1.179 -3.472,2.687 -0.066,0.261 -0.131,0.589 -0.131,0.917 v 38.652 c 0,2.031 1.638,3.604 3.603,3.604 C -1.637,42.256 0,40.683 0,38.652 V 27.253 c 2.097,1.114 4.456,1.9 7.011,1.9 7.926,0 14.281,-6.486 14.281,-14.347 V 0 c 0,-2.031 -1.572,-3.604 -3.604,-3.604 -2.031,0 -3.603,1.573 -3.603,3.604 v 14.806 c 0,3.865 -3.144,7.008 -7.074,7.075 C 3.146,21.814 0.065,18.671 0,14.806 Z"
             style="fill:#ffffff;fill-opacity:1;fill-rule:nonzero;stroke:none"
             id="path96" /></g></g></g></g></svg>
