<?xml version="1.0" encoding="UTF-8"?>
<svg width="576" height="269.46" version="1.1" viewBox="0 0 576 269.46" xml:space="preserve" xmlns="http://www.w3.org/2000/svg" xmlns:cc="http://creativecommons.org/ns#" xmlns:dc="http://purl.org/dc/elements/1.1/" xmlns:rdf="http://www.w3.org/1999/02/22-rdf-syntax-ns#"><metadata><rdf:RDF><cc:Work rdf:about=""><dc:format>image/svg+xml</dc:format><dc:type rdf:resource="http://purl.org/dc/dcmitype/StillImage"/><dc:title/></cc:Work></rdf:RDF></metadata><defs><linearGradient id="linearGradient335" x2="1" gradientTransform="matrix(118.38 118.38 118.38 -118.38 228.81 130.45)" gradientUnits="userSpaceOnUse"><stop style="stop-color:#18f29b" offset="0"/><stop style="stop-color:#18f29b" offset=".060211"/><stop style="stop-color:#2cc5fe" offset=".22891"/><stop style="stop-color:#2cc5fe" offset=".28562"/><stop style="stop-color:#2e78fd" offset=".59003"/><stop style="stop-color:#2e78fd" offset=".60418"/><stop style="stop-color:#9a50ff" offset="1"/></linearGradient><clipPath id="clipPath345"><path d="m0 288h576v-288h-576z"/></clipPath></defs><g transform="matrix(1.3333 0 0 -1.3333 -96 327.36)"><path d="m312.83 233.03c-5.666 7.567-14.674 12.496-24.834 12.496-17.117 0-31.043-13.926-31.043-31.042v-0.059c-5.195 3.914-11.633 6.267-18.625 6.267-17.117 0-31.043-13.926-31.043-31.043v-24.834c0-17.117 13.926-31.042 31.043-31.042 10.16 0 19.167 4.927 24.834 12.495 5.667-7.568 14.674-12.495 24.834-12.495 17.117 0 31.043 13.925 31.043 31.042v0.059c5.195-3.916 11.633-6.268 18.625-6.268 17.117 0 31.043 13.926 31.043 31.043v24.835c0 17.116-13.926 31.042-31.043 31.042-10.159 0-19.167-4.929-24.834-12.496m6.209-43.381v24.835c0 10.27 8.355 18.625 18.625 18.625s18.626-8.355 18.626-18.625v-24.835c0-10.27-8.356-18.625-18.626-18.625s-18.625 8.355-18.625 18.625m-49.669-24.834v49.669c0 10.27 8.356 18.625 18.626 18.625 10.271 0 18.626-8.355 18.626-18.625v-49.669c0-10.27-8.355-18.626-18.626-18.626-10.27 0-18.626 8.356-18.626 18.626m-49.668 0v24.834c0 10.27 8.356 18.626 18.626 18.626s18.625-8.356 18.625-18.626v-24.834c0-10.27-8.355-18.626-18.625-18.626s-18.626 8.356-18.626 18.626" style="fill:url(#linearGradient335)"/><g clip-path="url(#clipPath345)"><g transform="translate(72 101.14)"><path d="m0 0c0 0.853 0.721 1.573 1.572 1.573h23.585c0.917 0 1.572-0.72 1.572-1.573 0-0.916-0.655-1.638-1.572-1.638h-21.947v-18.146h19.194c0.853 0 1.574-0.721 1.574-1.638 0-0.851-0.721-1.572-1.574-1.572h-19.194v-18.081h21.947c0.917 0 1.572-0.722 1.572-1.639 0-0.851-0.655-1.572-1.572-1.572h-23.717c-0.786 0.065-1.44 0.721-1.44 1.572z" style="fill:#ffffff"/></g><g transform="translate(133.05 75.857)"><path d="m0 0c0 5.437-4.389 9.893-9.892 9.893-5.437 0-9.826-4.456-9.958-9.893v-17.688c-0.065-0.262-0.131-0.525-0.328-0.721-0.261-0.394-0.719-0.59-1.178-0.59h-0.394c-0.458 0.132-0.851 0.458-1.047 0.852-0.066 0.066-0.066 0.13-0.066 0.197 0 0.065-0.066 0.13-0.066 0.13v29.285c0 0.85 0.655 1.571 1.573 1.571 0.852 0 1.506-0.721 1.506-1.571v-3.079c2.36 2.815 5.961 4.65 9.958 4.65 7.206 0 13.038-5.895 13.038-13.036v-17.427c0-0.918-0.722-1.572-1.572-1.572-0.853 0-1.574 0.654-1.574 1.572z" style="fill:#ffffff"/></g><g transform="translate(161.48 87.387)"><path d="m0 0c0-0.786-0.786-1.571-1.573-1.571h-4.127v-23.389c0-1.572 1.573-2.357 2.358-2.357 0.786 0 1.639-0.853 1.639-1.639s-0.853-1.572-1.639-1.572c-3.21 0-5.633 2.358-5.633 5.568v23.389h-3.996c-1.573 0-1.573 0.785-1.573 1.571s0 1.572 1.573 1.572h3.996v11.924c0 0.786 0.786 1.572 1.572 1.572 0.851 0 1.703-0.786 1.703-1.572v-11.924h4.127c0.787 0 1.573-0.786 1.573-1.572" style="fill:#ffffff"/></g><g transform="translate(171.89 87.322)"><path d="m0 0c0 0.917 0.721 1.571 1.639 1.571 0.785 0 1.505-0.654 1.505-1.571v-7.075c0.131 0.262 0.263 0.522 0.46 0.786 2.424 3.8 6.682 7.86 12.839 7.86 0.853 0 1.572-0.654 1.572-1.571 0-0.853-0.719-1.572-1.572-1.572-4.193 0-7.075-2.36-9.303-5.241-2.161-2.883-3.405-6.159-3.865-7.469-0.131-0.262-0.131-0.393-0.131-0.525v-14.085c0-0.918-0.72-1.572-1.505-1.572-0.918 0-1.639 0.654-1.639 1.572z" style="fill:#ffffff"/></g><g transform="translate(211.07 60.003)"><path d="m0 0c6.551 0 12.054 5.766 12.054 12.906 0 7.142-5.503 12.971-12.054 12.971-6.552 0-12.054-5.829-12.054-12.971 0-7.14 5.502-12.906 12.054-12.906m0 28.956c8.451 0 15.199-7.337 15.199-16.05 0-8.714-6.748-16.051-15.199-16.051-8.386 0-15.199 7.337-15.199 16.051 0 8.713 6.813 16.05 15.199 16.05" style="fill:#ffffff"/></g><g transform="translate(238.25 73.04)"><path d="m0 0c0-7.075 5.568-12.774 12.186-12.84 6.812 0.066 12.314 5.765 12.314 12.84s-5.502 12.71-12.314 12.71c-6.486 0-11.924-5.373-12.186-12.186zm-3.21-0.655v15.002c0 0.852 0.721 1.572 1.572 1.572 0.917 0 1.638-0.72 1.638-1.572v-4.651c2.751 3.734 7.207 6.223 12.186 6.223 8.647 0 15.525-7.141 15.525-15.919 0-8.713-6.878-15.985-15.525-15.985-4.979 0-9.435 2.49-12.186 6.29v-18.344c0-0.853-0.721-1.571-1.638-1.571-0.851 0-1.572 0.718-1.572 1.571z" style="fill:#ffffff"/></g><g transform="translate(273.95 87.453)"><path d="m0 0c0 0.852 0.721 1.506 1.507 1.506 0.917 0 1.637-0.654 1.637-1.506v-17.427c0-5.503 4.389-9.892 9.828-9.892 5.503 0 9.892 4.389 9.957 9.892v17.427c0 0.262 0.067 0.59 0.263 0.786 0 0.066 0.065 0.13 0.065 0.196 0.065 0 0.065 0.066 0.131 0.066 0.13 0.196 0.394 0.328 0.59 0.392h0.13c0.066 0 0.132 0.066 0.196 0.066h0.394c0.262-0.066 0.524-0.196 0.787-0.326 0.13-0.132 0.326-0.328 0.392-0.526 0.13-0.196 0.197-0.458 0.197-0.654v-28.04c0-8.386-6.814-15.067-15.264-15.067-2.359 0-4.586 0.588-6.617 1.506-0.721 0.459-1.049 1.375-0.656 2.096 0.393 0.786 1.245 0.983 2.031 0.786 1.572-0.786 3.407-1.244 5.242-1.244 6.682 0 12.054 5.307 12.119 11.923v2.097c-2.425-2.751-5.962-4.586-9.957-4.586-7.142 0.066-12.972 5.895-12.972 13.102z" style="fill:#ffffff"/></g><g transform="translate(313.84 80.377)"><path d="m0 0c0 13.168 10.875 23.651 24.175 23.651 5.568 0 10.875-1.9 14.935-5.11 1.704-1.245 1.967-3.67 0.722-5.307-1.244-1.572-3.669-1.9-5.307-0.589-2.817 2.161-6.42 3.537-10.35 3.537-4.718 0-8.844-1.769-11.793-4.783-3.078-2.947-4.913-6.943-4.913-11.399 0-4.323 1.835-8.319 4.913-11.268 2.949-3.014 7.075-4.782 11.793-4.782 3.275 0 6.353 0.983 8.974 2.489v8.975h-9.368c-2.031 0-3.734 1.703-3.734 3.734 0 2.097 1.703 3.669 3.734 3.669h13.037c2.096 0 3.8-1.572 3.8-3.669v-14.477c0-0.458-0.131-0.721-0.197-1.114-0.065-0.131-0.065-0.197-0.13-0.328v-0.065c-0.198-0.59-0.591-1.114-1.245-1.572-4.128-3.21-9.303-5.111-14.871-5.111-13.3 0-24.175 10.417-24.175 23.519" style="fill:#ffffff"/></g><g transform="translate(387.01 86.143)"><path d="m0 0c0-1.835-1.507-3.473-3.472-3.473-1.507 0-2.817-0.393-3.931-1.244-1.245-0.786-2.228-1.9-3.014-3.145-1.572-2.097-2.358-4.586-2.686-5.502v-12.448c0-1.9-1.638-3.472-3.603-3.472-1.9 0-3.472 1.572-3.472 3.472v25.812c0 1.9 1.572 3.407 3.472 3.407 1.965 0 3.603-1.507 3.603-3.407v-0.459c0.393 0.459 0.917 0.982 1.375 1.311 2.164 1.441 4.979 2.621 8.256 2.555 1.965 0 3.472-1.507 3.472-3.407" style="fill:#ffffff"/></g><g transform="translate(414.72 73.172)"><path d="m0 0c0 2.751-0.982 5.108-2.555 6.747-1.573 1.769-3.799 2.686-6.092 2.686-2.36 0-4.585-0.917-6.092-2.686-1.574-1.639-2.49-3.996-2.49-6.747 0-2.687 0.916-5.045 2.49-6.749 1.507-1.637 3.732-2.554 6.092-2.554 2.293 0 4.519 0.917 6.092 2.554 1.573 1.704 2.555 4.062 2.555 6.749m6.943 0v-12.842c0-1.899-1.571-3.471-3.471-3.471-1.703 0-3.014 1.246-3.407 2.817-2.49-1.769-5.437-2.817-8.712-2.817-4.456 0-8.321 1.834-11.138 4.782-2.818 3.013-4.454 7.075-4.454 11.531 0 4.52 1.636 8.582 4.454 11.529 2.817 3.014 6.682 4.914 11.138 4.914 3.275 0 6.222-1.114 8.712-2.882 0.393 1.636 1.704 2.882 3.407 2.882 1.9 0 3.471-1.572 3.471-3.539z" style="fill:#ffffff"/></g><g transform="translate(441.05 73.172)"><path d="m0 0c0-2.556 0.852-5.045 2.555-6.553 1.638-1.833 3.799-2.75 6.223-2.75 2.229 0 4.455 0.917 6.159 2.75 1.506 1.508 2.555 3.997 2.555 6.553 0 2.554-1.049 4.912-2.555 6.615-1.704 1.771-3.93 2.687-6.159 2.687-2.424 0-4.585-0.916-6.223-2.687-1.703-1.703-2.555-4.061-2.555-6.615m-7.206-25.092v38.063c0 1.9 1.571 3.472 3.472 3.472 1.835 0 3.341-1.246 3.603-2.686 2.424 1.572 5.568 2.686 8.909 2.686 8.714 0 15.855-7.468 15.855-16.443 0-8.977-7.141-16.248-15.855-16.248-3.274 0-6.42 0.983-8.778 2.685v-11.529c0-1.835-1.638-3.538-3.734-3.538-1.901 0-3.472 1.703-3.472 3.538" style="fill:#ffffff"/></g><g transform="translate(482.71 60.462)"><path d="m0 0c0-2.031-1.637-3.604-3.668-3.604-1.639 0-3.014 1.179-3.472 2.687-0.066 0.261-0.131 0.589-0.131 0.917v38.652c0 2.031 1.638 3.604 3.603 3.604 2.031 0 3.668-1.573 3.668-3.604v-11.399c2.097 1.114 4.456 1.9 7.011 1.9 7.926 0 14.281-6.486 14.281-14.347v-14.806c0-2.031-1.572-3.604-3.604-3.604-2.031 0-3.603 1.573-3.603 3.604v14.806c0 3.865-3.144 7.008-7.074 7.075-3.865-0.067-6.946-3.21-7.011-7.075z" style="fill:#ffffff"/></g></g></g></svg>
